<svg width="16.000000" height="16.000000" viewBox="0 0 16 16" fill="none" xmlns="http://www.w3.org/2000/svg" xmlns:xlink="http://www.w3.org/1999/xlink">
	<desc>
			Created with Pixso.
	</desc>
	<defs>
		<clipPath id="clip1_95">
			<rect id="Frame" width="16.000000" height="16.000000" fill="white" fill-opacity="0"/>
		</clipPath>
	</defs>
	<rect id="Frame" width="16.000000" height="16.000000" fill="#FFFFFF" fill-opacity="0"/>
	<g clip-path="url(#clip1_95)">
		<path id="Vector" d="M2.14 5.64C2.05 5.74 2 5.86 2 6L2 12.75C2 13.69 2.8 14.5 3.75 14.5L12.25 14.5C13.19 14.5 14 13.73 14 12.78L14 6C14 5.86 13.94 5.74 13.85 5.64C13.75 5.55 13.63 5.5 13.5 5.5L2.5 5.5C2.36 5.5 2.24 5.55 2.14 5.64Z" stroke="#000000" stroke-opacity="1.000000" stroke-width="1.000000"/>
		<path id="Vector" d="M5 5.5L5 4.5C5 3.7 5.31 2.94 5.87 2.37C6.44 1.81 7.2 1.5 8 1.5C8.79 1.5 9.55 1.81 10.12 2.37C10.68 2.94 11 3.7 11 4.5L11 5.5" stroke="#000000" stroke-opacity="1.000000" stroke-width="1.000000"/>
	</g>
</svg>
