<svg width="115.000000" height="15.000000" viewBox="0 0 115 15" fill="none" xmlns="http://www.w3.org/2000/svg" xmlns:xlink="http://www.w3.org/1999/xlink">
	<desc>
			Created with Pixso.
	</desc>
	<defs>
		<clipPath id="clip1_119">
			<rect id="Frame" width="115.000000" height="15.000000" fill="white" fill-opacity="0"/>
		</clipPath>
	</defs>
	<rect id="Frame" width="115.000000" height="15.000000" fill="#FFFFFF" fill-opacity="0"/>
	<g clip-path="url(#clip1_119)">
		<path id="Vector" d="M0.04 0.78L0.04 15.21L3.34 15.21L3.34 9.54L8.56 9.54L8.56 6.75L3.28 6.75L3.28 3.57L9.45 3.57L9.45 0.78L0.04 0.78ZM84.7 15.21L87.94 15.21L87.94 0.78L84.7 0.78L84.7 15.21ZM93.94 0.78L99.46 9.9L99.46 0.78L102.55 0.78L102.55 15.21L99.53 15.21L93.82 6.09L93.82 15.21L90.72 15.21L90.72 0.78L93.94 0.78ZM104.89 0.78L104.89 15.21L114.55 15.21L114.55 12.42L108.13 12.42L108.13 9.18L113.42 9.18L113.42 6.59L108.13 6.59L108.13 3.57L114.32 3.57L114.32 0.78L104.89 0.78ZM16.79 3.28C18.89 3.28 19.93 5.13 19.93 8C19.93 10.86 18.89 12.71 16.79 12.71C14.69 12.71 13.65 10.86 13.65 8C13.65 5.13 14.69 3.28 16.79 3.28ZM10.31 8C10.31 12.09 12.22 15.5 16.79 15.5C21.36 15.5 23.27 12.09 23.27 8C23.27 3.91 21.36 0.5 16.79 0.5C12.22 0.5 10.31 3.91 10.31 8ZM42.23 3.57L42.93 3.57C45.91 3.57 47.21 4.69 47.21 8C47.21 11.3 45.91 12.42 42.93 12.42L42.23 12.42L42.23 3.57ZM38.99 15.21L42.58 15.21C47.48 15.21 50.5 13.12 50.5 8C50.5 2.87 47.48 0.78 42.58 0.78L38.99 0.78L38.99 15.21L38.99 15.21ZM67.54 0.78L69.91 10.48L72.7 0.78L75.21 0.78L77.89 10.48L80.18 0.78L83.28 0.78L79.4 15.21L76.63 15.21L73.81 6.17L71.02 15.21L68.15 15.21L64.38 0.78L67.54 0.78ZM31.11 3.28C33.21 3.28 34.25 5.13 34.25 8C34.25 10.86 33.21 12.71 31.11 12.71C29.01 12.71 27.97 10.86 27.97 8C27.97 5.13 29.01 3.28 31.11 3.28L31.11 3.28ZM24.63 8C24.63 12.09 26.54 15.5 31.11 15.5C35.67 15.5 37.59 12.09 37.59 8C37.59 3.91 35.68 0.5 31.11 0.5C26.54 0.5 24.63 3.91 24.63 8ZM57.15 14.63C58.41 14.63 59.36 14.05 59.77 13.64C58.84 12.83 57.95 11.99 57.09 11.11C56.7 10.69 55.75 9.63 55.42 9.14C54.78 9.58 54.24 10.33 54.24 11.52C54.24 13.37 55.55 14.63 57.15 14.63ZM56.64 15.5C53.75 15.5 52.77 13.51 52.77 12.21C52.77 10.48 54.09 9.22 55.11 8.67C54.53 7.86 54.38 7.26 54.37 6.59C54.37 5.41 55.49 3.85 57.77 3.85C58.51 3.85 59.17 4 59.57 4.2C59.78 4.29 59.79 4.4 59.79 4.57C59.79 5.04 59.7 6.16 59.66 6.38C59.62 6.6 59.57 6.63 59.49 6.63C59.41 6.63 59.4 6.57 59.4 6.35C59.4 5.96 59.3 5.48 58.95 5.09C58.64 4.75 58.13 4.43 57.39 4.43C56.63 4.43 55.65 4.93 55.65 6.25C55.65 7.53 56.69 8.61 58.05 10.11C58.56 10.67 60.39 12.35 60.76 12.67C61.12 12.18 61.5 11.2 61.5 10.3C61.5 10.08 61.44 9.79 61.22 9.59C61.02 9.41 60.71 9.36 60.49 9.36C60.4 9.36 60.31 9.33 60.31 9.25C60.31 9.16 60.43 9.13 60.55 9.13C60.91 9.13 61.5 9.14 62.33 9.23C62.58 9.26 62.72 9.36 62.72 9.53C62.72 10.7 62 12.14 61.25 13.04C62.24 13.86 62.9 14.26 63.31 14.5C63.79 14.78 64.57 15.05 64.99 15.05C65.12 15.05 65.19 15.06 65.19 15.17C65.19 15.24 65.08 15.29 64.85 15.29L63.55 15.29C62.15 15.29 61.71 15.15 60.25 14.02C59.84 14.41 58.75 15.5 56.64 15.5Z" fill="#555555" fill-opacity="1.000000" fill-rule="evenodd"/>
	</g>
</svg>
