<svg width="81.000000" height="20.000000" viewBox="0 0 81 20" fill="none" xmlns="http://www.w3.org/2000/svg" xmlns:xlink="http://www.w3.org/1999/xlink">
	<desc>
			Created with Pixso.
	</desc>
	<defs>
		<clipPath id="clip1_2905">
			<rect id="Frame" width="81.000000" height="20.000000" fill="white" fill-opacity="0"/>
		</clipPath>
	</defs>
	<rect id="Frame" width="81.000000" height="20.000000" fill="#FFFFFF" fill-opacity="0"/>
	<g clip-path="url(#clip1_2905)">
		<path id="Vector" d="M80.39 6.77C80.39 6.77 80.51 0 72.36 0C67.54 0 63.75 3.76 63.75 10C63.75 17.1 68.2 20 72.56 20C78.62 20 80.18 14.25 80.18 14.25L79.44 14.25C79.44 14.25 77.75 16.86 74 16.86C70.91 16.86 68.15 13.84 68.15 9.33C68.15 3.63 70.3 1.65 72.52 1.65C77.18 1.65 76.39 6.77 76.39 6.77L80.39 6.77ZM38.75 7.02C38.75 4.46 38.13 0.04 31.41 0.04C23.67 0.04 23.59 5.16 23.59 5.16L27.91 5.12C27.91 5.12 27.13 1.52 30.88 1.52C33.47 1.52 34.67 3.59 34.67 7.64L34.67 8.88C33.47 8.14 31.95 7.64 30.18 7.64C25.48 7.64 22.52 10.2 22.52 13.84C22.52 17.6 25.32 19.95 29.07 19.95C32.36 19.95 34.3 17.64 35.33 15.74L35.53 15.74C35.53 17.76 35.99 19.54 35.99 19.54L39.36 19.54C39.36 19.54 38.74 17.72 38.74 14.62L38.75 7.02ZM30.38 17.14C28.16 17.14 26.43 15.74 26.43 13.55C26.43 11.32 28.12 9.66 30.84 9.66C32.77 9.66 34.01 10.28 35.04 11.28L35.08 13.8C34.3 15.08 32.73 17.14 30.38 17.14ZM0.6 0.49C1.14 10.04 0.6 19.58 0.6 19.58L4.85 19.58C4.85 19.58 4.31 10.04 4.85 0.49L0.6 0.49ZM56.62 0.49C57.16 10.04 56.62 19.58 56.62 19.58L60.86 19.58C60.86 19.58 60.33 10.04 60.86 0.49L56.62 0.49ZM21.69 2.97L21.28 0.49L7.15 0.49L6.74 2.97C7.89 2.76 10.41 2.64 12.18 2.56C12.55 11.36 12.09 19.58 12.09 19.58L16.34 19.58C16.34 19.58 15.88 11.36 16.25 2.56C18.03 2.64 20.54 2.81 21.69 2.97ZM46.94 17.6C46.57 8.76 47.03 0.49 47.03 0.49L42.78 0.49C42.78 0.49 43.32 10.04 42.78 19.58L54.11 19.58L54.52 15.95L54.23 15.95C51.84 17.52 47.93 17.6 46.94 17.6L46.94 17.6Z" fill="#171722" fill-opacity="1.000000" fill-rule="nonzero"/>
	</g>
</svg>
