<svg width="16.000000" height="16.000000" viewBox="0 0 16 16" fill="none" xmlns="http://www.w3.org/2000/svg" xmlns:xlink="http://www.w3.org/1999/xlink">
	<desc>
			Created with Pixso.
	</desc>
	<defs>
		<clipPath id="clip1_89">
			<rect id="Frame" width="16.000000" height="16.000000" fill="white" fill-opacity="0"/>
		</clipPath>
	</defs>
	<rect id="Frame" width="16.000000" height="16.000000" fill="#FFFFFF" fill-opacity="0"/>
	<g clip-path="url(#clip1_89)">
		<path id="Vector" d="M5.01 2.35C4.41 2.6 3.86 2.96 3.4 3.41C2.93 3.87 2.57 4.41 2.32 5.01C2.07 5.61 1.94 6.25 1.94 6.9C1.94 7.55 2.07 8.2 2.32 8.8C2.57 9.4 2.93 9.94 3.4 10.4C3.86 10.85 4.41 11.21 5.01 11.46C5.61 11.7 6.25 11.82 6.9 11.81C8.2 11.8 9.43 11.27 10.34 10.36C11.25 9.44 11.76 8.2 11.76 6.9C11.76 5.61 11.25 4.37 10.34 3.45C9.43 2.53 8.2 2.01 6.9 2C6.25 1.99 5.61 2.11 5.01 2.35ZM10.57 10.57L14 14" stroke="#000000" stroke-opacity="1.000000" stroke-width="1.000000"/>
	</g>
</svg>
