<svg width="70.000000" height="15.000000" viewBox="0 0 70 15" fill="none" xmlns="http://www.w3.org/2000/svg" xmlns:xlink="http://www.w3.org/1999/xlink">
	<desc>
			Created with Pixso.
	</desc>
	<defs>
		<clipPath id="clip1_115">
			<rect id="Frame" width="70.000000" height="15.000000" fill="white" fill-opacity="0"/>
		</clipPath>
	</defs>
	<rect id="Frame" width="70.000000" height="15.000000" fill="#FFFFFF" fill-opacity="0"/>
	<g clip-path="url(#clip1_115)">
		<path id="Vector" d="M34.75 4.27L34.8 4.11L32.56 4.11L32.5 4.27C33.09 4.31 33.26 4.62 33.26 4.88C33.26 5.04 33.21 5.2 33.13 5.35L30.65 10.1L30.27 4.95C30.23 4.41 30.52 4.27 31.1 4.27L31.15 4.1L28.79 4.1L28.74 4.26C29.32 4.31 29.5 4.52 29.5 4.76C29.49 4.9 29.45 5.03 29.39 5.16L26.97 10.08L26.59 4.96C26.56 4.38 26.85 4.29 27.4 4.27L27.44 4.11L25.03 4.11L24.98 4.27C25.66 4.31 25.87 4.51 25.92 5.13L26.39 11.04L26.69 11.04L29.6 5.13L30.08 11.04L30.36 11.04L33.33 5.37C33.72 4.61 34.17 4.3 34.75 4.27ZM19.76 4.27C20.14 4.3 20.38 4.38 20.48 4.52C20.57 4.66 20.57 4.87 20.48 5.2L19.07 9.89C18.9 10.42 18.5 10.71 17.91 10.75L17.85 10.92L23.73 10.92L24.75 8.91L24.63 8.85C23.8 10.18 22.57 10.74 20.42 10.74L19.54 10.74L20.53 7.43L21.51 7.43C21.91 7.43 22.17 7.52 22.32 7.7C22.49 7.91 22.51 8.26 22.39 8.8L22.54 8.8L23.36 6.09L23.21 6.09C22.92 6.84 22.32 7.27 21.52 7.27L20.58 7.27L21.49 4.27L22.4 4.27C23.56 4.27 24.28 4.78 24.54 5.74L24.66 5.72L24.44 4.11L19.81 4.11L19.76 4.27ZM24.4 12.64C24.11 12.64 23.92 12.77 23.92 12.98C23.92 13.15 24.08 13.26 24.24 13.26C24.31 13.26 24.38 13.24 24.44 13.21C24.5 13.18 24.55 13.16 24.61 13.16C24.87 13.16 25.06 13.43 25.06 13.81C25.06 14.66 24.25 15.28 23.14 15.28C20.86 15.28 18.62 13.39 16.3 9.49C17.25 6.42 19.16 1.28 21.3 1.28C21.59 1.28 21.88 1.34 22.14 1.46C22.31 1.54 22.49 1.58 22.67 1.59C23.13 1.59 23.25 1.3 23.25 1.13C23.25 0.75 22.88 0.5 22.32 0.5C19.2 0.5 17.31 5.46 16.15 9.21C15.06 7.3 13.61 4.28 12.83 0.76L9.25 0.76C8.32 0.76 6.76 0.96 6.76 2.27C6.76 2.56 6.88 2.83 7.08 3.04C7.28 3.24 7.55 3.35 7.84 3.35C8.44 3.35 8.76 2.95 8.76 2.67C8.76 2.49 8.66 2.3 8.44 2.3C8.22 2.3 8.12 2.48 8.12 2.67C8.12 2.72 8.11 2.77 8.1 2.81C8.08 2.86 8.05 2.9 8.02 2.94C7.98 2.98 7.94 3.01 7.89 3.02C7.85 3.04 7.8 3.05 7.75 3.05C7.31 3.05 7 2.72 7 2.25C7 1.41 7.76 0.98 9.24 0.98L10.77 0.98C11.66 0.98 12.05 1.42 11.83 2.31C10.3 7.69 7.25 13.43 3.26 13.43C1.43 13.43 0.47 12.36 0.47 11.3C0.47 10.53 0.99 9.96 1.45 9.96C1.76 9.96 1.88 10.17 1.98 10.36C2.09 10.55 2.19 10.74 2.46 10.74C2.51 10.74 2.56 10.73 2.61 10.72C2.65 10.7 2.7 10.67 2.73 10.63C2.77 10.6 2.8 10.55 2.82 10.51C2.84 10.46 2.84 10.41 2.84 10.36C2.84 9.93 2.36 9.61 1.72 9.61C0.98 9.61 0.19 10.29 0.19 11.3C0.19 12.69 1.48 13.7 3.26 13.7C5.4 13.7 7.39 12.2 9.19 9.24C10.91 6.41 11.85 3.22 12.12 2.21C13.68 7.8 18.35 15.49 23.11 15.49C24.39 15.49 25.28 14.78 25.28 13.77C25.28 13.13 24.89 12.64 24.4 12.64L24.4 12.64ZM48.43 3.95C46.4 3.95 44.33 6.23 44.33 8.46C44.33 10.18 45.47 11.08 46.59 11.08C47.57 11.08 48.58 10.58 49.36 9.7C50.16 8.8 50.61 7.64 50.63 6.43C50.63 4.95 49.75 3.95 48.43 3.95ZM46.57 10.88C45.66 10.88 45.11 10.07 45.11 8.72C45.11 6.77 46.74 4.15 48.4 4.15C49.58 4.15 49.82 5.2 49.82 6.08C49.82 7.76 48.71 10.88 46.57 10.88L46.57 10.88ZM48.06 0.97L48.12 0.76L44.6 0.76L44.54 0.97C45.46 1.02 45.72 1.42 45.72 1.77C45.72 1.98 45.64 2.21 45.48 2.48C45.48 2.48 40.93 9.6 40.57 10.16L38.69 2.13C38.66 2.01 38.64 1.88 38.64 1.75C38.64 1.2 39.06 1.01 39.88 0.98L39.94 0.76L36.33 0.76L36.27 0.98C37.04 1.01 37.49 1.21 37.73 2.2C38.16 3.97 39.83 11.01 39.88 11.21C38.13 13.76 36.66 15.24 34.31 15.24C32.59 15.24 31.3 14.06 31.3 12.48C31.3 10.91 32.55 9.64 34.09 9.64C35.05 9.64 35.57 10.13 35.57 10.58C35.57 10.68 35.55 10.77 35.5 10.85C35.46 10.94 35.39 11.01 35.31 11.06C35.18 11.14 35.07 11.24 35.07 11.44C35.07 11.48 35.07 11.53 35.09 11.57C35.11 11.61 35.14 11.64 35.17 11.67C35.2 11.7 35.24 11.73 35.28 11.74C35.32 11.76 35.37 11.76 35.41 11.76C35.74 11.76 35.92 11.36 35.92 10.99C35.92 10.02 35.22 9.42 34.09 9.42C32.2 9.42 31.03 11.04 31.03 12.54C31.03 13.99 32.25 15.5 34.31 15.5C37.3 15.5 38.88 13.12 40.55 10.61C40.55 10.61 45.35 3.14 45.86 2.38C46.45 1.5 47.21 1.01 48.06 0.97ZM68.58 11.19C68.08 11.19 67.82 11.53 67.82 11.78C67.82 11.84 67.84 11.9 67.88 11.95C67.93 11.99 67.99 12.02 68.05 12.02C68.11 12.02 68.17 12.01 68.22 11.97C68.28 11.94 68.32 11.89 68.34 11.84C68.39 11.76 68.45 11.69 68.52 11.65C68.6 11.61 68.69 11.58 68.78 11.58C69.17 11.58 69.44 11.85 69.44 12.3C69.44 13.1 68.6 13.75 67.57 13.75C64.98 13.75 62.74 11.46 60.72 6.75L63.1 4.93C63.88 4.36 64.26 4.3 64.57 4.27L64.62 4.11L62.32 4.11L62.27 4.27C62.65 4.29 62.88 4.43 62.88 4.63C62.88 4.78 62.75 4.97 62.49 5.17L59.21 7.64L59.94 5.27L59.95 5.23C60.16 4.64 60.28 4.31 61.13 4.27L61.18 4.11L58.57 4.11L58.52 4.27C58.9 4.29 59.13 4.37 59.23 4.5C59.32 4.64 59.32 4.88 59.2 5.3L57.84 9.83C57.67 10.4 57.3 10.74 56.88 10.74C56.5 10.74 56.23 10.5 55.93 9.87L54.76 7.48C55.82 7.28 57.04 6.63 57.04 5.44C57.04 4.61 56.46 4.06 55.04 4.06L53.82 4.09C53.23 4.1 52.6 4.12 52.14 4.1L52.09 4.27C52.77 4.31 53.03 4.48 52.78 5.3L51.41 9.84C51.23 10.41 50.84 10.71 50.24 10.74L50.18 10.92L52.92 10.92L52.97 10.74C52.46 10.72 52.07 10.64 52.07 10.18C52.07 10.06 52.1 9.94 52.13 9.82L52.81 7.57L54.05 7.57L54.06 7.59C54.61 8.68 55.28 10.04 55.68 10.91L55.68 10.92L59.37 10.92L59.42 10.74C58.91 10.73 58.51 10.62 58.51 10.18C58.51 10.06 58.53 9.94 58.57 9.82L59.13 7.94L60.08 7.21C61.34 9.74 63.44 13.96 67.53 13.96C68.7 13.96 69.62 13.23 69.62 12.29C69.62 11.58 69.09 11.19 68.58 11.19L68.58 11.19ZM53.77 7.4L52.86 7.4L53.81 4.27C53.97 4.26 54.43 4.23 54.82 4.23C56.04 4.23 56.29 4.84 56.29 5.36C56.29 6.29 55.86 7.4 53.77 7.4Z" fill="#555555" fill-opacity="1.000000" fill-rule="nonzero"/>
	</g>
</svg>
