<svg width="47.000000" height="20.000000" viewBox="0 0 47 20" fill="none" xmlns="http://www.w3.org/2000/svg" xmlns:xlink="http://www.w3.org/1999/xlink">
	<desc>
			Created with Pixso.
	</desc>
	<defs>
		<clipPath id="clip1_126">
			<rect id="Frame" width="47.000000" height="20.000000" fill="white" fill-opacity="0"/>
		</clipPath>
	</defs>
	<rect id="Frame" width="47.000000" height="20.000000" fill="#FFFFFF" fill-opacity="0"/>
	<g clip-path="url(#clip1_126)">
		<path id="Vector" d="M11.09 8.48L11.88 8.07L11.88 1.81L11.28 1.81L9.81 3.76L9.65 3.76L9.73 1.58L16.13 1.58L16.22 3.76L16.05 3.76L14.6 1.81L13.98 1.81L13.98 8.06L14.77 8.48L14.77 8.69L11.11 8.69L11.11 8.48L11.09 8.48L11.09 8.48ZM16.93 8.2L16.93 1.27L16.33 1.03L16.33 0.89L18.58 0.5L18.81 0.5L18.81 3.78L18.86 3.72C19.4 3.26 20.08 3.01 20.79 3.01C21.77 3.01 22.21 3.56 22.21 4.58L22.21 8.22L22.73 8.48L22.73 8.69L19.81 8.69L19.81 8.48L20.35 8.2L20.35 4.58C20.35 4.02 20.09 3.8 19.62 3.8C19.34 3.79 19.07 3.88 18.85 4.05L18.85 8.21L19.37 8.5L19.37 8.69L16.45 8.69L16.45 8.5L16.94 8.2L16.93 8.2ZM24.58 6.08C24.64 7.22 25.15 8.11 26.38 8.11C26.96 8.11 27.37 7.84 27.77 7.63L27.77 7.87C27.5 8.18 27.17 8.43 26.8 8.6C26.43 8.77 26.03 8.85 25.62 8.85C23.72 8.85 22.78 7.81 22.78 5.99C22.78 4.21 23.82 3.1 25.52 3.1C27.13 3.1 27.97 3.89 27.97 6.01L27.97 6.07L24.58 6.08ZM24.55 5.82L26.2 5.71C26.2 4.28 25.97 3.34 25.48 3.34C24.96 3.34 24.55 4.44 24.55 5.8L24.55 5.82ZM0.54 11.47C0.54 8.45 2.55 7.36 4.78 7.36C5.72 7.36 6.61 7.52 7.11 7.73L7.16 9.84L6.94 9.84L5.63 7.79C5.37 7.69 5.09 7.65 4.81 7.66C3.62 7.66 3.02 9.04 3.04 11.28C3.06 13.96 3.51 15.18 4.62 15.18C4.84 15.18 5.06 15.15 5.27 15.07L5.27 12.2L4.56 11.79L4.56 11.53L8.03 11.53L8.03 11.8L7.32 12.2L7.32 15.04C6.47 15.34 5.58 15.49 4.68 15.48C2.15 15.48 0.54 14.3 0.54 11.47ZM7.98 10.05L7.98 9.89L10.33 9.48L10.59 9.5L10.59 14.07C10.59 14.64 10.86 14.8 11.3 14.8C11.44 14.8 11.58 14.77 11.72 14.71C11.85 14.65 11.96 14.56 12.06 14.45L12.06 10.35L11.42 10.06L11.42 9.88L13.74 9.48L13.97 9.51L13.97 14.77L14.6 15.02L14.6 15.2L12.29 15.48L12.07 15.46L12.07 14.77L12.01 14.77C11.53 15.22 10.91 15.47 10.26 15.48C9.14 15.48 8.6 14.82 8.6 13.82L8.6 10.35L7.98 10.05ZM22.9 9.46L23.09 9.48L23.09 11.18L23.16 11.18C23.41 9.94 23.95 9.48 24.62 9.48C24.72 9.48 24.82 9.49 24.91 9.53L24.91 11.26C24.75 11.23 24.59 11.21 24.43 11.22C24 11.21 23.57 11.29 23.17 11.47L23.17 14.82L23.71 15.12L23.71 15.32L20.66 15.32L20.66 15.12L21.21 14.82L21.21 10.24L20.58 10.05L20.58 9.89L22.9 9.46ZM28.76 9.61L28.76 7.82L28.13 7.58L28.13 7.44L30.5 7.02L30.7 7.05L30.7 14.75L31.37 14.99L31.37 15.16L29.03 15.48L28.86 15.46L28.86 14.83L28.79 14.83C28.59 15.04 28.35 15.21 28.09 15.32C27.82 15.43 27.53 15.49 27.25 15.48C25.98 15.48 25.05 14.52 25.05 12.53C25.05 10.44 26.14 9.42 27.77 9.42C28.11 9.41 28.45 9.47 28.76 9.61ZM28.76 9.95C28.67 9.88 28.57 9.82 28.47 9.79C28.36 9.75 28.24 9.74 28.13 9.75C27.5 9.76 27.1 10.73 27.1 12.42C27.1 13.93 27.39 14.79 28.21 14.75C28.41 14.76 28.61 14.68 28.76 14.55L28.76 9.95ZM33.94 9.48L34.15 9.48L34.15 14.85L34.68 15.13L34.68 15.32L31.65 15.32L31.65 15.12L32.19 14.82L32.19 10.33L31.56 10.06L31.56 9.89L33.94 9.48ZM34.16 8.03C34.16 8.16 34.13 8.29 34.08 8.42C34.02 8.54 33.95 8.65 33.85 8.74C33.75 8.83 33.64 8.91 33.51 8.95C33.39 9 33.25 9.03 33.12 9.02C32.86 9.02 32.6 8.92 32.42 8.73C32.23 8.54 32.12 8.29 32.12 8.03C32.12 7.76 32.23 7.51 32.42 7.32C32.6 7.14 32.86 7.03 33.12 7.03C33.39 7.03 33.65 7.13 33.84 7.32C34.04 7.5 34.15 7.76 34.16 8.03ZM41.47 14.83L41.47 10.27L40.84 10.05L40.84 9.83L43.16 9.38L43.4 9.42L43.4 10.1L43.46 10.1C44.01 9.62 44.71 9.36 45.43 9.35C46.44 9.35 46.9 9.83 46.9 10.9L46.9 14.82L47.44 15.12L47.44 15.32L44.41 15.32L44.41 15.12L44.96 14.82L44.96 11.03C44.96 10.43 44.71 10.19 44.22 10.19C43.93 10.19 43.65 10.28 43.43 10.46L43.43 14.82L43.95 15.12L43.95 15.32L40.93 15.32L40.93 15.12L41.47 14.83ZM38.11 11.99L38.11 11.22C38.11 10.06 37.87 9.7 37.16 9.7C37.08 9.69 36.99 9.69 36.91 9.7L35.65 11.44L35.47 11.44L35.47 9.86C36.16 9.62 36.88 9.49 37.6 9.48C39.15 9.48 40.05 9.91 40.05 11.22L40.05 14.93L40.6 15.09L40.6 15.23C40.25 15.4 39.86 15.49 39.47 15.48C38.69 15.48 38.33 15.23 38.16 14.82L38.11 14.82C37.79 15.26 37.32 15.5 36.59 15.5C35.68 15.5 35.05 14.93 35.05 13.93C35.05 12.99 35.65 12.45 36.86 12.23L38.11 11.99ZM38.11 14.55L38.11 12.24L37.73 12.27C37.11 12.32 36.91 12.7 36.91 13.57C36.91 14.5 37.21 14.74 37.63 14.74C37.72 14.74 37.81 14.73 37.9 14.69C37.98 14.66 38.05 14.6 38.11 14.53L38.11 14.55ZM17.87 11.96L17.87 11.22C17.87 10.06 17.61 9.68 16.9 9.68C16.82 9.69 16.74 9.7 16.67 9.72L15.39 11.41L15.23 11.41L15.23 9.82C15.91 9.59 16.62 9.47 17.35 9.46C18.89 9.46 19.79 9.89 19.79 11.2L19.79 14.91L20.35 15.07L20.35 15.21C19.99 15.39 19.6 15.47 19.21 15.46C18.43 15.46 18.07 15.21 17.9 14.8L17.85 14.8C17.53 15.24 17.06 15.48 16.35 15.48C15.42 15.48 14.8 14.91 14.8 13.92C14.8 12.97 15.39 12.43 16.6 12.21L17.87 11.96L17.87 11.96ZM17.87 14.53L17.87 12.24L17.47 12.27C16.87 12.32 16.65 12.7 16.65 13.57C16.65 14.5 16.97 14.74 17.38 14.74C17.47 14.74 17.56 14.73 17.64 14.69C17.72 14.66 17.79 14.6 17.85 14.53L17.87 14.53Z" fill="#555555" fill-opacity="1.000000" fill-rule="nonzero"/>
	</g>
</svg>
