<svg width="115.000000" height="15.000000" viewBox="0 0 115 15" fill="none" xmlns="http://www.w3.org/2000/svg" xmlns:xlink="http://www.w3.org/1999/xlink">
	<desc>
			Created with Pixso.
	</desc>
	<defs>
		<clipPath id="clip1_117">
			<rect id="Frame" width="115.000000" height="15.000000" fill="white" fill-opacity="0"/>
		</clipPath>
	</defs>
	<rect id="Frame" width="115.000000" height="15.000000" fill="#FFFFFF" fill-opacity="0"/>
	<g clip-path="url(#clip1_117)">
		<path id="Vector" d="M113.79 11.01C113.46 11.01 113.18 11.29 113.18 11.66C113.18 12.04 113.46 12.31 113.79 12.31C114.13 12.31 114.4 12.03 114.4 11.66C114.4 11.29 114.13 11.01 113.79 11.01ZM91.72 12.27L94.52 12.27L94.52 12.02L94.22 11.95C93.94 11.88 93.82 11.73 93.82 11.34L93.82 7.57L94.47 7.57C94.87 7.57 95.08 7.67 95.11 8.51L95.17 10.29C95.23 11.88 95.69 12.33 96.46 12.33C97.25 12.33 97.46 11.79 97.46 11.02L97.46 10.7L97.17 10.7L97.17 10.94C97.17 11.45 97.1 11.81 96.91 11.81C96.73 11.81 96.71 11.68 96.67 11.04L96.59 9.82C96.48 8.18 96.27 7.61 95.06 7.39C96.21 7.09 96.92 6.24 96.92 5.03C96.92 3.47 95.69 2.72 94.51 2.72L89.78 2.72L89.78 2.97L90.05 3.02C90.54 3.13 90.56 3.4 90.56 4.52L90.56 10.04C90.56 11.27 90.21 11.87 89.42 11.87C88.71 11.87 88.33 11.52 88.33 10.18L88.33 3.62C88.33 3.23 88.45 3.12 88.75 3.05L89.13 2.97L89.13 2.72L86.23 2.72L86.23 2.97L86.54 3.05C86.81 3.13 86.91 3.25 86.91 3.63L86.91 10.08C86.91 11.54 87.76 12.34 89.05 12.34C90.34 12.34 90.97 11.54 90.97 10.04L90.97 4.02C90.97 3.27 91.13 3.01 91.74 3.01C92.22 3.01 92.43 3.18 92.43 3.63L92.43 11.34C92.43 11.73 92.31 11.87 92.03 11.94L91.72 12.02L91.72 12.27ZM110.33 3.63C110.33 3.25 110.45 3.12 110.73 3.06L111.1 2.98L111.1 2.72L108.22 2.72L108.22 2.97L108.53 3.05C108.8 3.13 108.93 3.25 108.93 3.63L108.93 11.4C108.93 11.77 108.78 11.98 108.35 11.98C107.85 11.98 107.78 11.81 107.6 11L105.82 2.69L105.27 2.69L103.58 10.73C103.38 11.63 103.29 11.84 102.91 11.95L102.68 12.02L102.68 12.27L104.66 12.27L104.66 12.02L104.37 11.97C103.95 11.88 103.84 11.66 104.05 10.61L105.05 5.46L106.14 10.91C106.31 11.7 106.29 11.86 105.7 11.97L105.41 12.02L105.41 12.27L112.75 12.27L112.75 9.11L112.49 9.11C112.35 10.57 112.06 11.94 110.88 11.94L110.33 11.94L110.33 3.63ZM106 9.69L106 9.32L104.13 9.32L104.08 9.69L106 9.69L106 9.69ZM98.27 3.8L98.27 10.43C98.27 11.43 98.27 11.9 97.77 11.98L97.52 12.02L97.52 12.27L99.56 12.27L99.56 12.02C98.67 11.9 98.67 11.59 98.67 10.51L98.67 4.22L98.34 3.91L101.73 12.27L102.32 12.27L102.32 4.56C102.32 3.42 102.32 3.18 102.87 3.02L103.06 2.97L103.06 2.72L100.97 2.72L100.97 2.97L101.21 3.02C101.91 3.15 101.91 3.43 101.91 4.48L101.91 9.3L102.05 9.26L99.47 2.72L97.49 2.72L97.49 2.97L97.68 3.02C97.91 3.09 98.03 3.34 98.27 3.8ZM93.82 3.05L94.37 3.05C94.92 3.05 95.44 3.41 95.44 5.21C95.44 7.06 95.05 7.24 94.27 7.24L93.82 7.24L93.82 3.05L93.82 3.05ZM84.58 7.41C84.58 11.41 84.25 11.98 83.53 11.98C82.81 11.98 82.49 11.41 82.49 7.43C82.49 3.58 82.84 3.02 83.53 3.02C84.25 3.02 84.58 3.58 84.58 7.41ZM86.09 7.49C86.09 4.84 85.25 2.65 83.53 2.65C81.8 2.65 80.98 4.84 80.98 7.49C80.98 10.15 81.82 12.34 83.53 12.34C85.29 12.34 86.09 10.15 86.09 7.49ZM80.16 3.63C80.16 3.25 80.26 3.12 80.53 3.05L80.84 2.97L80.84 2.72L77.97 2.72L77.97 2.97L78.32 3.05C78.59 3.12 78.75 3.22 78.75 3.62L78.75 10.29C78.75 11.22 78.66 11.97 77.97 11.97C77.53 11.97 77.19 11.62 77.21 11.37C77.25 10.94 77.97 10.97 78.02 10.27C78.07 9.78 77.75 9.57 77.46 9.53C77.03 9.47 76.5 9.83 76.49 10.55C76.47 11.48 77.08 12.33 78.12 12.33C79.27 12.33 80.16 11.55 80.16 10.07L80.16 3.63ZM33.85 3.63C33.85 3.25 33.98 3.12 34.26 3.06L34.63 2.98L34.63 2.72L31.75 2.72L31.75 2.97L32.05 3.05C32.33 3.13 32.45 3.25 32.45 3.63L32.45 11.4C32.45 11.77 32.3 11.98 31.87 11.98C31.37 11.98 31.29 11.81 31.11 11L29.33 2.69L28.78 2.69L27.09 10.73C26.89 11.63 26.8 11.84 26.42 11.95L26.19 12.02L26.19 12.27L28.17 12.27L28.17 12.02L27.88 11.97C27.46 11.88 27.35 11.66 27.56 10.61L28.56 5.44L29.65 10.91C29.8 11.7 29.8 11.86 29.21 11.97L28.92 12.02L28.92 12.27L36.28 12.27L36.28 9.11L36.02 9.11C35.88 10.57 35.59 11.94 34.41 11.94L33.85 11.94L33.85 3.63L33.85 3.63ZM72.45 3.05L72.76 3.05C73.62 3.05 73.91 4.42 74 5.88L74.27 5.88L74.27 2.72L69.23 2.72L69.23 5.88L69.5 5.88C69.6 4.42 69.89 3.05 70.75 3.05L71.05 3.05L71.05 11.34C71.05 11.73 70.93 11.87 70.65 11.94L70.29 12.02L70.29 12.27L73.28 12.27L73.28 12.02L72.85 11.93C72.59 11.86 72.45 11.77 72.45 11.34L72.45 3.05L72.45 3.05ZM66.12 7.47L66.55 7.49C67.17 7.5 67.35 7.74 67.47 9.25L67.74 9.25L67.74 5.39L67.47 5.39C67.32 6.6 67.16 7.11 66.56 7.13L66.12 7.14L66.12 3.05L67.07 3.05C68.14 3.05 68.38 4.4 68.53 5.88L68.79 5.88L68.79 2.72L64.01 2.72L64.01 2.97L64.31 3.05C64.63 3.13 64.71 3.33 64.71 3.65L64.71 11.34C64.71 11.73 64.59 11.87 64.31 11.94L64.01 12.02L64.01 12.27L68.93 12.27L68.93 9.11L68.67 9.11C68.5 10.55 68.32 11.94 67.07 11.94L66.12 11.94L66.12 7.47ZM60.89 7.47L61.32 7.49C61.94 7.5 62.12 7.74 62.25 9.25L62.51 9.25L62.51 5.39L62.25 5.39C62.1 6.6 61.93 7.11 61.33 7.13L60.89 7.14L60.89 3.05L61.85 3.05C62.91 3.05 63.15 4.42 63.3 5.88L63.56 5.88L63.56 2.72L58.64 2.72L58.64 2.97L59.09 3.05C59.4 3.13 59.49 3.33 59.49 3.65L59.49 11.34C59.49 11.73 59.36 11.87 59.09 11.94L58.78 12.02L58.78 12.27L63.7 12.27L63.7 9.11L63.44 9.11C63.27 10.55 63.09 11.94 61.84 11.94L60.89 11.94L60.89 7.47ZM55.19 3.05L55.61 3.05C56.16 3.05 56.67 3.41 56.67 5.21C56.67 7.03 56.29 7.24 55.51 7.24L55.19 7.24L55.19 3.05L55.19 3.05ZM53.1 12.27L55.9 12.27L55.9 12.02L55.59 11.95C55.31 11.88 55.19 11.73 55.19 11.34L55.19 7.57L55.7 7.57C56.11 7.57 56.31 7.74 56.34 8.51L56.41 10.29C56.47 11.88 56.92 12.33 57.7 12.33C58.49 12.33 58.7 11.79 58.7 11.02L58.7 10.7L58.41 10.7L58.41 10.94C58.41 11.45 58.34 11.81 58.14 11.81C57.96 11.81 57.95 11.68 57.91 11.04L57.82 9.82C57.71 8.14 57.49 7.61 56.3 7.39C57.45 7.09 58.16 6.24 58.16 5.03C58.16 3.47 56.92 2.72 55.74 2.72L53.1 2.72L53.1 2.97L53.4 3.05C53.68 3.13 53.8 3.25 53.8 3.63L53.8 11.34C53.8 11.73 53.68 11.87 53.4 11.94L53.1 12.02L53.1 12.27L53.1 12.27ZM50.97 3.05L51.28 3.05C52.14 3.05 52.43 4.42 52.53 5.88L52.79 5.88L52.79 2.72L47.76 2.72L47.76 5.88L48.02 5.88C48.12 4.42 48.41 3.05 49.27 3.05L49.57 3.05L49.57 11.34C49.57 11.73 49.45 11.87 49.17 11.94L48.81 12.02L48.81 12.27L51.74 12.27L51.74 12.02L51.38 11.94C51.02 11.86 50.97 11.58 50.97 11.34L50.97 3.05L50.97 3.05ZM47.77 9.79C47.77 6.95 44.65 6.2 44.65 4.13C44.65 3.69 44.82 3.02 45.51 3.02C46.51 3.02 46.89 4.31 47.05 5.88L47.31 5.88L47.31 2.72L47.15 2.72C47.08 3.02 46.95 3.16 46.77 3.16C46.46 3.16 46.29 2.66 45.53 2.66C44.35 2.66 43.54 3.65 43.54 4.94C43.54 7.28 46.66 8.26 46.66 10.43C46.66 11.41 46.21 11.97 45.58 11.97C44.65 11.97 44.04 10.87 43.88 9.11L43.61 9.11L43.61 12.27L43.78 12.27C43.92 11.81 44.1 11.77 44.25 11.77C44.51 11.77 44.79 12.33 45.6 12.33C46.83 12.33 47.77 11.26 47.77 9.79L47.77 9.79ZM38.69 3.63C38.69 3.25 38.82 3.12 39.09 3.06L39.47 2.98L39.47 2.72L36.58 2.72L36.58 2.97L36.89 3.05C37.17 3.13 37.29 3.25 37.29 3.63L37.29 11.34C37.29 11.73 37.17 11.87 36.89 11.94L36.58 12.02L36.58 12.27L41.12 12.27L41.12 9.11L40.85 9.11C40.72 10.57 40.43 11.94 39.25 11.94L38.69 11.94L38.69 3.63L38.69 3.63ZM29.51 9.69L29.51 9.32L27.64 9.32L27.59 9.69L29.51 9.69L29.51 9.69ZM21.5 12.3L22.07 12.3L23.36 5.48L23.16 5.48L24.58 12.3L25.08 12.3L26.77 4.26C26.95 3.41 27.05 3.12 27.38 3.04L27.64 2.97L27.64 2.72L25.69 2.72L25.69 2.97L25.98 3.02C26.39 3.11 26.49 3.36 26.3 4.38L25.2 9.78L25.37 9.78L24.26 4.09C24.15 3.55 24.08 3.11 24.54 3.02L24.84 2.97L24.84 2.72L22.17 2.72L22.17 2.97L22.35 3.01C22.62 3.08 22.66 3.25 22.78 3.77L23.21 5.84L23.12 4.59L22.17 9.64L22.29 9.64L21.17 4.09C21.04 3.52 21 3.09 21.45 3.01L21.65 2.97L21.65 2.72L18.92 2.72L18.92 2.97L19.19 3.04C19.43 3.11 19.57 3.23 19.74 3.99L21.5 12.3ZM14.1 7.47L14.53 7.49C15.15 7.5 15.33 7.74 15.46 9.25L15.72 9.25L15.72 5.39L15.46 5.39C15.3 6.6 15.14 7.11 14.54 7.13L14.1 7.14L14.1 3.05L15.05 3.05C16.12 3.05 16.36 4.42 16.51 5.88L16.77 5.88L16.77 2.72L11.99 2.72L11.99 2.97L12.29 3.05C12.61 3.13 12.7 3.33 12.7 3.65L12.7 11.34C12.7 11.73 12.57 11.87 12.29 11.94L11.99 12.02L11.99 12.27L16.91 12.27L16.91 9.11L16.65 9.11C16.48 10.55 16.3 11.94 15.05 11.94L14.1 11.94L14.1 7.47ZM5.38 12.27L8.22 12.27L8.22 12.02L7.9 11.95C7.65 11.9 7.48 11.73 7.48 11.34L7.48 7.56L9.58 7.56L9.58 11.34C9.58 11.73 9.41 11.9 9.16 11.95L8.84 12.02L8.84 12.27L11.69 12.27L11.69 12.02L11.38 11.94C11.1 11.87 10.98 11.72 10.98 11.33L10.98 3.63C10.98 3.25 11.1 3.12 11.38 3.05L11.68 2.97L11.68 2.72L8.84 2.72L8.84 2.97L9.16 3.05C9.4 3.12 9.58 3.22 9.58 3.62L9.58 7.18L7.48 7.18L7.48 3.62C7.48 3.23 7.64 3.12 7.9 3.05L8.22 2.97L8.22 2.72L5.38 2.72L5.38 2.97L5.68 3.05C5.96 3.13 6.08 3.25 6.08 3.63L6.08 11.34C6.08 11.73 5.96 11.87 5.68 11.94L5.38 12.02L5.38 12.27ZM3.26 3.05L3.56 3.05C4.42 3.05 4.71 4.42 4.81 5.88L5.07 5.88L5.07 2.72L0.04 2.72L0.04 5.88L0.3 5.88C0.4 4.42 0.69 3.05 1.55 3.05L1.86 3.05L1.86 11.34C1.86 11.73 1.73 11.87 1.45 11.94L1.09 12.02L1.09 12.27L4.09 12.27L4.09 12.02L3.66 11.93C3.39 11.86 3.26 11.77 3.26 11.34L3.26 3.05L3.26 3.05Z" fill="#555555" fill-opacity="1.000000" fill-rule="nonzero"/>
	</g>
</svg>
