<svg width="47.000000" height="20.000000" viewBox="0 0 47 20" fill="none" xmlns="http://www.w3.org/2000/svg" xmlns:xlink="http://www.w3.org/1999/xlink">
	<desc>
			Created with Pixso.
	</desc>
	<defs>
		<clipPath id="clip1_121">
			<rect id="Frame" width="47.000000" height="20.000000" fill="white" fill-opacity="0"/>
		</clipPath>
	</defs>
	<rect id="Frame" width="47.000000" height="20.000000" fill="#FFFFFF" fill-opacity="0"/>
	<g clip-path="url(#clip1_121)">
		<path id="Vector" d="M0.53 1.94L0.67 1.94L0.67 1.8L0.53 1.94Z" fill="#555555" fill-opacity="1.000000" fill-rule="nonzero"/>
		<path id="Vector" d="M0.6 1.8L0.6 3.37L3.22 3.37L3.22 18.26L5.63 18.26L5.63 3.37L8.1 3.37L8.1 1.8L0.6 1.8Z" fill="#555555" fill-opacity="1.000000" fill-rule="nonzero"/>
		<path id="Vector" d="M8.86 5.95L8.86 6.63C8.86 6.63 10.1 5.61 11.34 5.82L11.34 7.99L10.58 7.99C10.58 7.99 8.93 8.06 9 9.15L9 18.19L6.65 18.19L6.65 5.95L8.86 5.95L8.86 5.95ZM17.67 5.88L20.09 5.88L21.53 13.77L22.83 5.95L24.34 5.95L22 18.26L20.14 18.26L17.67 5.88Z" fill="#555555" fill-opacity="1.000000" fill-rule="nonzero"/>
		<path id="Vector" d="M28.41 15.88L28.41 13.16L30.82 13.16C30.82 13.16 31.44 18.19 27.44 18.33C23.38 18.47 23.86 11.05 23.86 11.05C23.86 11.05 23.59 6.23 27.38 5.82C27.38 5.82 31.23 5.55 30.89 12.28L26.35 12.28L26.35 16.02C26.35 16.02 26.49 17.45 27.45 17.45C28.41 17.37 28.41 15.88 28.41 15.88ZM28.34 8.47C28.27 6.7 27.31 6.7 27.31 6.7C26.28 6.7 26.28 8.47 26.28 8.47L26.28 11.26L28.27 11.26C28.34 11.18 28.41 10.23 28.34 8.47L28.34 8.47ZM38.46 15.88L38.46 13.16L40.86 13.16C40.86 13.16 41.49 18.19 37.49 18.33C33.43 18.47 33.91 11.05 33.91 11.05C33.91 11.05 33.64 6.23 37.43 5.82C37.43 5.82 41.28 5.55 40.94 12.28L36.4 12.28L36.4 16.02C36.4 16.02 36.54 17.45 37.5 17.45C38.39 17.37 38.46 15.88 38.46 15.88ZM38.39 8.47C38.32 6.71 37.36 6.71 37.36 6.71C36.33 6.71 36.33 8.47 36.33 8.47L36.33 11.26L38.32 11.26C38.39 11.18 38.39 10.23 38.39 8.47L38.39 8.47ZM31.23 18.26L33.5 18.26L33.5 1.6L31.23 1.6L31.23 18.26ZM43.48 5.81L43.48 6.49C43.48 6.49 44.72 5.47 45.96 5.68L45.96 7.85L45.2 7.85C45.2 7.85 43.61 7.92 43.61 9.01L43.61 18.26L41.27 18.26L41.27 5.81L43.48 5.81ZM11.48 9.63C11.48 9.63 11 5.89 14.71 5.82C14.71 5.82 17.87 5.61 17.87 9.63L17.87 18.26L15.74 18.26L15.74 17.58C15.74 17.58 14.92 18.39 13.61 18.39C12.3 18.39 11.68 17.5 11.54 17.17C11.12 16.48 10.99 13.9 11.68 12.82C11.68 12.82 12.16 12.07 13.27 11.32C13.81 10.99 14.16 10.71 14.44 10.58C14.58 10.51 14.71 10.37 14.78 10.31C14.78 10.31 15.53 9.77 15.6 9.56L15.6 7.92C15.6 7.92 15.53 6.76 14.7 6.76C13.87 6.76 13.74 7.98 13.74 7.98L13.74 9.62L11.48 9.62L11.48 9.63ZM14.64 16.76C15.47 16.76 15.61 15.67 15.61 15.67L15.61 10.98C15.47 11.12 15.13 11.31 14.71 11.52C14.29 11.79 13.89 12 13.75 12.14C13.54 12.41 13.47 12.75 13.47 12.75L13.47 15.75C13.54 15.81 13.75 16.76 14.64 16.76ZM10.79 2.82C10.65 2.35 10.38 2.21 10.17 2.21C9.54 2.21 9.41 3.09 9.41 3.5C9.41 4.11 9.62 4.72 10.1 4.72C10.17 4.72 10.65 4.72 10.86 4.1L11.48 4.31C11.41 4.51 11.41 4.64 11.21 4.92C11 5.19 10.72 5.47 10.18 5.47C9.55 5.47 8.73 5.05 8.73 3.7C8.72 2.41 9.41 1.8 10.17 1.8C11.06 1.8 11.34 2.61 11.34 2.75L10.79 2.82L10.79 2.82ZM12.65 5.33C13.2 5.33 13.76 4.92 13.76 3.97C13.76 3.36 13.55 2.68 12.65 2.68C12.1 2.68 11.62 3.16 11.62 4.05C11.55 5 12.17 5.33 12.65 5.33ZM12.65 4.86C12.17 4.86 12.17 4.18 12.17 3.97C12.17 3.56 12.24 3.09 12.65 3.09C13.07 3.09 13.13 3.7 13.13 3.9C13.06 4.11 13.06 4.86 12.65 4.86ZM15.88 5.27L15.26 5.27L15.26 3.43C15.26 3.29 15.26 3.16 15.05 3.16C14.84 3.16 14.71 3.3 14.5 3.5L14.5 5.26L13.88 5.26L13.88 2.68L14.5 2.68L14.5 3.02C14.64 2.88 14.92 2.61 15.32 2.61C15.66 2.61 15.87 3.29 15.87 3.29L15.87 5.27L15.88 5.27L15.88 5.27ZM18.22 5.27L18.22 1.6L17.6 1.6L17.6 2.96C17.33 2.63 17.05 2.63 16.98 2.63C16.43 2.63 16.08 3.24 16.08 3.92C16.08 4.66 16.42 5.2 16.98 5.2C17.32 5.2 17.53 4.93 17.6 4.87L17.6 5.14L18.22 5.14L18.22 5.27ZM17.19 3.23C17.39 3.23 17.53 3.37 17.6 3.51L17.6 4.6C17.53 4.66 17.39 4.87 17.19 4.87C16.77 4.87 16.7 4.33 16.7 4.12C16.7 3.84 16.7 3.23 17.19 3.23ZM19.46 2.41L20.28 1.67L19.59 1.67L18.97 2.41L19.46 2.41ZM19.05 4.11C19.05 4.73 19.39 4.79 19.53 4.79C19.8 4.79 19.94 4.59 20.01 4.46L20.49 4.66C20.43 4.8 20.15 5.34 19.53 5.34C18.9 5.34 18.42 4.87 18.42 3.98C18.42 3.23 18.9 2.69 19.53 2.69C20.08 2.69 20.35 3.03 20.49 3.37C20.56 3.65 20.56 3.85 20.56 4.12L19.05 4.12L19.05 4.11L19.05 4.11ZM20.01 3.71C20.01 3.23 19.67 3.09 19.53 3.09C19.32 3.09 19.05 3.23 19.05 3.71L20.01 3.71ZM22.56 1.67L23.94 4.05L23.94 1.67L24.56 1.67L24.56 5.27L23.94 5.27L22.56 2.75L22.56 5.27L21.94 5.27L21.94 1.67L22.56 1.67ZM26.83 5.2C26.76 5.06 26.76 4.87 26.76 4.73L26.76 3.57C26.76 2.89 26.22 2.76 25.87 2.76C25.53 2.76 25.18 2.9 24.9 3.23L25.24 3.57C25.38 3.37 25.58 3.23 25.79 3.23C26 3.23 26.21 3.37 26.21 3.65L26.21 3.71C25.52 3.78 24.83 4.05 24.83 4.66C24.83 5.07 25.17 5.34 25.58 5.34C25.92 5.34 26.13 5.14 26.27 5.07C26.27 5.14 26.27 5.21 26.34 5.34L26.82 5.34L26.83 5.2ZM25.38 4.52C25.38 4.11 26.01 3.98 26.21 3.98L26.21 4.6C26.14 4.66 25.87 4.87 25.66 4.87C25.52 4.79 25.38 4.73 25.38 4.52ZM28.48 3.3C28.21 3.09 28.07 3.09 27.93 3.09C27.73 3.09 27.59 3.23 27.59 3.36C27.59 3.57 27.8 3.64 28.08 3.7C28.42 3.77 28.97 3.91 28.97 4.45C28.97 4.78 28.7 5.26 27.94 5.26C27.4 5.26 27.12 4.99 26.98 4.78L27.32 4.51C27.4 4.6 27.5 4.67 27.61 4.71C27.71 4.76 27.83 4.78 27.94 4.78C28.15 4.78 28.36 4.72 28.36 4.51C28.36 4.31 28.15 4.24 27.88 4.18C27.6 4.11 26.98 3.97 26.98 3.36C26.98 2.95 27.4 2.55 27.88 2.55C28.29 2.55 28.63 2.76 28.78 2.89L28.48 3.3ZM29.93 1.87L29.93 2.68L30.34 2.68L30.34 3.16L29.93 3.16L29.93 4.52C29.93 4.73 30.14 4.73 30.34 4.79L30.34 5.33C30 5.33 29.8 5.33 29.59 5.19C29.38 5.05 29.31 4.78 29.31 4.51L29.31 3.16L28.96 3.16L28.96 2.68L29.31 2.68L29.31 1.87L29.93 1.87Z" fill="#555555" fill-opacity="1.000000" fill-rule="nonzero"/>
	</g>
</svg>
