<svg width="55.000000" height="14.000000" viewBox="0 0 55 14" fill="none" xmlns="http://www.w3.org/2000/svg" xmlns:xlink="http://www.w3.org/1999/xlink">
	<desc>
			Created with Pixso.
	</desc>
	<defs/>
	<path id="Vector" d="M15.92 -0.48C12.72 -0.45 10.1 3.11 10.1 6.21C10.1 9.48 12.02 13.47 15.92 13.46C19.83 13.45 21.86 9.15 21.86 6.21C21.86 2.97 19.13 -0.5 15.92 -0.48ZM15.92 -0.35C18.61 -0.35 19.33 2.61 19.33 6.21C19.33 10.97 18.46 13.32 15.92 13.32C13.39 13.31 12.57 11.39 12.57 6.21C12.57 2.97 13.24 -0.35 15.92 -0.35ZM22.91 6.3C22.9 2.77 25.73 -0.36 28.12 -0.52C28.99 -0.58 30.1 -0.18 30.75 0.1C31.22 0.3 32.18 0.01 32.35 -0.54L32.45 -0.54L32.45 4.28L32.35 4.28C32.35 4.07 31.46 -0.4 28.12 -0.4C25.66 -0.4 25.42 3.94 25.42 6.3C25.42 8.67 25.49 13.34 28.37 13.34C29.76 13.34 30.79 12.74 31.06 11.5L31.06 7.75L29.89 7.75L29.89 7.59L34.43 7.59L34.43 7.75L33.31 7.75L33.31 13.23L33.22 13.23C33.22 13.23 33.03 12.44 32.11 12.45C30.93 12.45 29.82 13.47 28.46 13.46C24.88 13.43 22.93 9.84 22.91 6.3L22.91 6.3ZM1.3 0L-0.11 0L-0.11 -0.16L4.84 -0.16L4.84 0L3.6 0L7.13 9.6C8.24 6.2 9.09 3.68 10.25 0L9.02 0L9.02 -0.16L11.63 -0.16L11.63 0L10.44 0L6.15 13.39L1.3 0ZM35.12 10.11L35.1 -0.02L33.75 -0.02L33.75 -0.17L38.7 -0.17L38.7 -0.02L37.36 -0.02L37.39 11.09C37.69 12.36 38.22 13.33 40.02 13.34C41.83 13.36 43.06 12.27 43.51 10.79L43.51 -0.02L41.98 -0.02L41.98 -0.16L54.56 -0.16L54.59 4.7L54.47 4.7C54.23 1.56 53.02 0.37 50.9 0.03C50.18 -0.09 49.41 0 48.44 -0.01L48.44 6.2C49.29 6.26 50.18 6.21 50.79 5.69C51.34 5.22 51.49 4.13 51.53 3.68L51.64 3.68L51.64 9.09L51.52 9.09C51.49 9.09 51.45 7.73 50.79 7.09C50.12 6.44 49.28 6.28 48.44 6.43L48.44 13.06C49.62 13.06 50.56 13.16 51.38 12.94C53.86 12.26 54.74 10.17 54.73 8.07L54.87 8.07L54.87 13.22L44.99 13.22L44.99 13.06L46.11 13.06L46.11 -0.02L43.7 -0.02L43.7 10.79C43.43 11.83 42.43 13.54 39.87 13.53C37.48 13.52 35.12 12.44 35.12 10.11Z" fill="#555555" fill-opacity="1.000000" fill-rule="nonzero"/>
</svg>
